<svg width="22" height="25" viewBox="0 0 22 25" fill="none" xmlns="http://www.w3.org/2000/svg">
<path d="M6.60156 0.864258L6.25 1.5625H1.5625C0.698242 1.5625 0 2.26074 0 3.125C0 3.98926 0.698242 4.6875 1.5625 4.6875H20.3125C21.1768 4.6875 21.875 3.98926 21.875 3.125C21.875 2.26074 21.1768 1.5625 20.3125 1.5625H15.625L15.2734 0.864258C15.0098 0.332031 14.4678 0 13.877 0H7.99805C7.40723 0 6.86523 0.332031 6.60156 0.864258ZM20.3125 6.25H1.5625L2.59766 22.8027C2.67578 24.0381 3.70117 25 4.93652 25H16.9385C18.1738 25 19.1992 24.0381 19.2773 22.8027L20.3125 6.25Z" fill="black"/>
</svg>
