<svg width="363" height="189" viewBox="0 0 363 189" fill="none" xmlns="http://www.w3.org/2000/svg">
<path fill-rule="evenodd" clip-rule="evenodd" d="M58.7381 0C60.3949 1.21613 62.0673 2.44533 63.7546 3.68547C113.87 40.5197 177.11 87 233 87C287.271 87 328.162 39.8073 356.17 0L379.439 0C385.894 0 391.636 3.05853 395.292 7.80557C378.057 60.7578 331.807 132.315 277.24 191H1.73179C-17.7924 132.335 -24.8272 61.2332 -26.5463 10.3939C-23.1477 4.19932 -16.5642 0 -8.99998 0L58.7381 0Z" fill="white" fill-opacity="0.08"/>
<path d="M363 185.225C363 301.326 160.619 304.725 42.3606 304.725C-75.8973 304.725 29.0568 214.986 29.0568 98.8848C29.0568 -17.2164 -75.8971 -36.2565 42.3608 -36.2565C160.619 -36.2565 363 69.1239 363 185.225Z" fill="white" fill-opacity="0.08"/>
</svg>
