<svg width="251" height="181" viewBox="0 0 251 181" fill="none" xmlns="http://www.w3.org/2000/svg">
<path d="M4.29167 135.29V143.659H2.14583C0.960345 143.659 0 142.656 0 141.439V137.495C0 136.279 0.974594 135.278 2.14583 135.29H4.29167Z" fill="#FF7A14"/>
<path d="M13.7898 125.025L13.7613 154.913H9.95127C8.6518 154.913 7.60596 153.91 7.60596 152.696L7.63445 127.231C7.6487 126 8.69455 125.011 9.97978 125.011L13.7898 125.025Z" fill="#FF7A14"/>
<path d="M26.0265 118.22L25.9695 160.059C25.9695 161.276 24.9265 162.265 23.627 162.265H19.4209C18.1357 162.254 17.0927 161.262 17.0927 160.048L17.1212 139.125L17.1354 118.206C17.1354 116.992 18.1926 116 19.4779 116H23.684C24.9807 116 26.0265 116.992 26.0265 118.22Z" fill="#FF7A14"/>
<path d="M91.3303 150.898V162.967C86.7394 163.084 82.3224 161.362 78.2302 157.814C84.0749 153.004 87.5772 150.707 91.3303 150.898Z" fill="white"/>
<path d="M91.3303 117.121V127.454C90.4041 127.454 89.5634 127.277 89.1075 126.998C84.8985 124.319 89.5207 119.491 77.0104 119.11C79.6008 117.827 85.4 117.046 91.3303 117.121Z" fill="white"/>
<path d="M57.6267 81.727C60.1943 87.4549 63.0041 88.2272 70.3592 85.0184C66.2955 82.4081 63.1552 77.9027 57.6267 81.727Z" fill="white"/>
<path d="M91.3303 30.623V76.455C89.1075 76.6175 86.9731 74.6141 84.471 70.3908C80.1737 79.7806 75.1411 82.6218 66.3668 77.8685C58.7438 73.7336 53.2666 77.0449 45.6294 79.9573C51.5768 85.52 56.8288 90.4357 63.5399 96.7365C58.7125 103.978 53.1356 112.986 47.704 121.139C42.0388 115.958 36.2538 111.159 31.13 106.169C27.7018 102.829 27.2145 91.6583 30.7026 86.9021C34.9857 81.0744 35.0284 75.5973 32.4979 69.0486C28.2604 58.157 32.2329 47.0745 41.9476 40.4945C45.2447 38.2717 48.9094 36.5362 52.0014 34.0769C59.8324 27.8218 68.544 27.0865 77.8454 29.278C82.3679 30.3438 86.842 30.6971 91.3303 30.623Z" fill="white"/>
<path d="M49.2914 141.172V142.652C49.2942 142.791 49.2999 142.935 49.3056 143.082L30.3293 143.066L30.3436 135.567L44.7261 135.587H49.4709C49.4025 136.604 49.3569 137.633 49.3199 138.671C49.3056 139.499 49.2914 140.323 49.2914 141.172Z" fill="#FF7A14"/>
<path d="M91.1356 84.1818V114.956C86.5874 114.927 82.0393 115.044 77.5196 115.369C76.5479 115.443 75.6075 116.062 74.6357 116.914C72.0881 119.182 72.1052 123.169 74.6642 125.42C77.1976 127.657 79.4204 129.601 81.9367 131.043C91.1042 136.297 89.4286 142.213 82.4212 149.295C78.1694 153.592 72.3104 156.328 67.0412 159.568C65.8045 160.332 63.9493 160.759 62.5387 160.48C59.1675 159.816 55.0012 154.872 52.2056 149.794C51.7497 148.956 51.3364 148.132 50.9546 147.306C50.4844 146.254 50.0797 145.231 49.772 144.271C49.7207 144.117 49.6751 143.966 49.6295 143.818C49.3416 142.84 49.1707 141.934 49.1137 141.145C49.108 141.042 49.1023 140.942 49.0994 140.846V139.817C49.0994 139.227 49.1137 138.654 49.1279 138.079C49.165 137.358 49.2106 136.642 49.279 135.936C49.3189 135.488 49.3673 135.044 49.4243 134.605C49.4984 134.009 49.5839 133.419 49.6836 132.835C51.3023 123.095 56.1952 114.756 62.362 106.774C65.5109 102.696 68.5573 98.4133 70.8684 93.8367C74.194 87.2709 82.6263 83.9909 91.1356 84.1818Z" fill="white"/>
<path d="M50.4142 20.9169C50.0836 13.9693 50.323 6.99889 50.323 0.0341873C41.0443 11.1452 36.365 23.6783 35.7581 38.8217C39.9072 35.4334 43.0647 32.7546 46.3305 30.2155C49.4082 27.8218 50.6022 24.9094 50.4142 20.9169Z" fill="white"/>
<path d="M113.515 20.8827C113.846 13.9351 113.607 6.96471 113.607 0C122.885 11.111 125.427 22.1964 126.034 37.3398C125.667 34.9689 125.248 34.5927 124.114 33.0054C123.233 31.7743 120.395 28.577 118.143 27.5283C114.627 25.8925 113.325 24.878 113.515 20.8827Z" fill="#FF7A14"/>
<path d="M96.1349 179.424V176.247H96.6051C96.8274 176.247 97.0212 176.161 97.1865 175.987C97.3518 175.813 97.4914 175.537 97.6082 175.158C97.7222 174.779 97.8163 174.286 97.8847 173.682C97.9531 173.078 98.0015 172.34 98.0271 171.476L98.1012 168.966H103.949V176.247H105.112V179.424H103.615V177.743H97.631V179.424H96.1349ZM98.6455 176.247H102.256V170.462H99.6486L99.623 171.698C99.5974 172.556 99.5489 173.286 99.4805 173.887C99.4093 174.488 99.3095 174.984 99.1841 175.372C99.053 175.756 98.8764 176.05 98.6455 176.247Z" fill="#FF7A14"/>
<path d="M109.341 177.865C108.822 177.865 108.352 177.777 107.93 177.603C107.511 177.429 107.152 177.187 106.856 176.882C106.559 176.577 106.328 176.226 106.169 175.83C106.009 175.434 105.927 175.018 105.927 174.576C105.927 173.964 106.063 173.405 106.34 172.901C106.616 172.396 107.012 171.989 107.528 171.684C108.044 171.379 108.651 171.225 109.352 171.225C110.062 171.225 110.669 171.379 111.17 171.684C111.675 171.989 112.059 172.394 112.327 172.895C112.595 173.397 112.729 173.938 112.729 174.517C112.729 174.616 112.723 174.716 112.715 174.816C112.706 174.918 112.698 175.001 112.689 175.067H107.682C107.716 175.389 107.813 175.671 107.973 175.913C108.132 176.155 108.34 176.338 108.591 176.463C108.842 176.588 109.113 176.651 109.4 176.651C109.728 176.651 110.042 176.571 110.332 176.412C110.626 176.252 110.825 176.038 110.931 175.776L112.353 176.172C112.196 176.503 111.971 176.794 111.677 177.05C111.384 177.307 111.042 177.506 110.646 177.648C110.255 177.794 109.816 177.865 109.341 177.865ZM107.645 174.021H111.033C110.999 173.699 110.908 173.419 110.757 173.18C110.606 172.944 110.404 172.758 110.158 172.624C109.911 172.49 109.634 172.425 109.329 172.425C109.033 172.425 108.762 172.49 108.52 172.624C108.278 172.758 108.078 172.944 107.927 173.18C107.77 173.419 107.679 173.699 107.645 174.021Z" fill="#FF7A14"/>
<path d="M113.333 177.743V176.272C113.53 176.264 113.709 176.215 113.866 176.13C114.023 176.041 114.159 175.89 114.279 175.679C114.399 175.468 114.493 175.169 114.564 174.785C114.633 174.4 114.681 173.91 114.707 173.308L114.792 171.328H119.651V177.657H117.995V172.773H116.251L116.226 173.505C116.191 174.331 116.109 175.015 115.978 175.557C115.847 176.101 115.661 176.531 115.428 176.848C115.191 177.164 114.9 177.389 114.556 177.526C114.211 177.663 113.803 177.734 113.333 177.743Z" fill="#FF7A14"/>
<path d="M120.777 175.85C120.777 175.434 120.893 175.069 121.13 174.756C121.366 174.443 121.694 174.2 122.113 174.029C122.532 173.858 123.016 173.773 123.558 173.773C123.831 173.773 124.108 173.793 124.387 173.836C124.666 173.875 124.911 173.944 125.117 174.032V173.687C125.117 173.283 124.997 172.972 124.752 172.753C124.51 172.533 124.148 172.425 123.672 172.425C123.316 172.425 122.979 172.488 122.657 172.61C122.338 172.733 121.999 172.915 121.643 173.154L121.11 172.066C121.537 171.787 121.979 171.576 122.427 171.436C122.877 171.296 123.347 171.225 123.843 171.225C124.766 171.225 125.484 171.453 126 171.909C126.516 172.365 126.772 173.015 126.772 173.858V175.893C126.772 176.064 126.804 176.187 126.864 176.258C126.926 176.332 127.026 176.375 127.166 176.392V177.74C127.017 177.765 126.883 177.785 126.764 177.802C126.644 177.819 126.542 177.828 126.462 177.828C126.131 177.828 125.883 177.754 125.712 177.606C125.544 177.458 125.439 177.275 125.399 177.061L125.362 176.728C125.082 177.09 124.732 177.372 124.31 177.569C123.891 177.765 123.461 177.865 123.025 177.865C122.595 177.865 122.21 177.777 121.868 177.603C121.526 177.426 121.258 177.187 121.064 176.882C120.871 176.577 120.777 176.232 120.777 175.85ZM124.806 176.172C124.897 176.075 124.971 175.979 125.028 175.884C125.085 175.788 125.114 175.699 125.114 175.619V174.981C124.917 174.901 124.701 174.839 124.473 174.793C124.242 174.747 124.022 174.728 123.817 174.728C123.39 174.728 123.036 174.819 122.76 174.998C122.484 175.178 122.344 175.417 122.344 175.716C122.344 175.876 122.389 176.03 122.481 176.175C122.572 176.321 122.703 176.437 122.877 176.526C123.051 176.614 123.256 176.657 123.495 176.657C123.743 176.657 123.985 176.611 124.225 176.517C124.464 176.423 124.658 176.309 124.806 176.172Z" fill="#FF7A14"/>
<path d="M131.383 177.865C130.864 177.865 130.394 177.777 129.972 177.603C129.554 177.429 129.194 177.187 128.898 176.882C128.602 176.577 128.371 176.226 128.211 175.83C128.052 175.434 127.969 175.018 127.969 174.576C127.969 173.964 128.106 173.405 128.382 172.901C128.659 172.396 129.055 171.989 129.571 171.684C130.086 171.379 130.693 171.225 131.394 171.225C132.104 171.225 132.708 171.379 133.213 171.684C133.717 171.989 134.102 172.394 134.37 172.895C134.637 173.397 134.771 173.938 134.771 174.517C134.771 174.616 134.766 174.716 134.757 174.816C134.749 174.918 134.74 175.001 134.731 175.067H129.724C129.759 175.389 129.856 175.671 130.015 175.913C130.175 176.155 130.383 176.338 130.634 176.463C130.884 176.588 131.155 176.651 131.443 176.651C131.773 176.651 132.084 176.571 132.375 176.412C132.668 176.252 132.868 176.038 132.973 175.776L134.395 176.172C134.238 176.503 134.013 176.794 133.72 177.05C133.426 177.307 133.084 177.506 132.688 177.648C132.298 177.794 131.859 177.865 131.383 177.865ZM129.687 174.021H133.076C133.042 173.699 132.95 173.419 132.799 173.18C132.648 172.944 132.446 172.758 132.201 172.624C131.953 172.49 131.677 172.425 131.372 172.425C131.075 172.425 130.805 172.49 130.562 172.624C130.32 172.758 130.121 172.944 129.97 173.18C129.816 173.419 129.722 173.699 129.687 174.021Z" fill="#FF7A14"/>
<path d="M135.846 177.743V171.325H137.575L139.604 175.035L141.645 171.325H143.352V177.743H141.782V173.59L140.126 176.603H139.086L137.416 173.59V177.743H135.846Z" fill="#FF7A14"/>
<path d="M147.96 177.743V171.325H149.616V173.736H150.171L151.927 171.325H153.731L151.431 174.414L153.979 177.74H152.086L150.146 175.192H149.613V177.74H147.96V177.743Z" fill="#FF7A14"/>
<path d="M158.951 177.865C158.447 177.865 158.005 177.754 157.62 177.529C157.236 177.307 156.936 177.002 156.723 176.617V180.373H155.067V171.322H156.512V172.433C156.76 172.06 157.073 171.764 157.452 171.547C157.831 171.331 158.264 171.222 158.749 171.222C159.185 171.222 159.587 171.308 159.954 171.479C160.322 171.65 160.641 171.889 160.912 172.194C161.183 172.499 161.396 172.85 161.547 173.246C161.698 173.642 161.775 174.066 161.775 174.522C161.775 175.141 161.656 175.705 161.41 176.209C161.165 176.717 160.832 177.116 160.407 177.415C159.991 177.717 159.504 177.865 158.951 177.865ZM158.396 176.457C158.649 176.457 158.88 176.406 159.088 176.301C159.293 176.195 159.473 176.053 159.627 175.87C159.778 175.688 159.894 175.483 159.974 175.252C160.054 175.021 160.091 174.782 160.091 174.531C160.091 174.263 160.048 174.018 159.963 173.79C159.875 173.565 159.749 173.363 159.584 173.189C159.421 173.015 159.228 172.881 159.008 172.784C158.789 172.687 158.552 172.639 158.299 172.639C158.142 172.639 157.982 172.664 157.823 172.716C157.663 172.767 157.506 172.841 157.358 172.938C157.21 173.035 157.079 173.146 156.968 173.277C156.857 173.405 156.777 173.545 156.726 173.699V175.203C156.825 175.437 156.959 175.651 157.127 175.845C157.296 176.038 157.492 176.189 157.714 176.298C157.937 176.403 158.165 176.457 158.396 176.457Z" fill="#FF7A14"/>
<path d="M162.525 175.85C162.525 175.434 162.642 175.069 162.878 174.756C163.115 174.443 163.442 174.2 163.861 174.029C164.28 173.858 164.765 173.773 165.306 173.773C165.58 173.773 165.856 173.793 166.135 173.836C166.415 173.875 166.66 173.944 166.865 174.032V173.687C166.865 173.283 166.745 172.972 166.5 172.753C166.258 172.533 165.896 172.425 165.42 172.425C165.064 172.425 164.728 172.488 164.406 172.61C164.086 172.733 163.747 172.915 163.391 173.154L162.858 172.066C163.286 171.787 163.727 171.576 164.175 171.436C164.625 171.296 165.095 171.225 165.591 171.225C166.514 171.225 167.232 171.453 167.748 171.909C168.264 172.365 168.521 173.015 168.521 173.858V175.893C168.521 176.064 168.552 176.187 168.612 176.258C168.674 176.332 168.774 176.375 168.914 176.392V177.74C168.766 177.765 168.632 177.785 168.512 177.802C168.392 177.819 168.29 177.828 168.21 177.828C167.879 177.828 167.631 177.754 167.46 177.606C167.292 177.458 167.187 177.275 167.147 177.061L167.11 176.728C166.831 177.09 166.48 177.372 166.058 177.569C165.64 177.765 165.209 177.865 164.773 177.865C164.343 177.865 163.958 177.777 163.616 177.603C163.274 177.426 163.006 177.187 162.813 176.882C162.619 176.577 162.525 176.232 162.525 175.85ZM166.554 176.172C166.645 176.075 166.72 175.979 166.777 175.884C166.834 175.788 166.862 175.699 166.862 175.619V174.981C166.665 174.901 166.449 174.839 166.221 174.793C165.99 174.747 165.771 174.728 165.565 174.728C165.138 174.728 164.785 174.819 164.508 174.998C164.232 175.178 164.092 175.417 164.092 175.716C164.092 175.876 164.138 176.03 164.229 176.175C164.32 176.321 164.451 176.437 164.625 176.526C164.799 176.614 165.004 176.657 165.243 176.657C165.491 176.657 165.734 176.611 165.973 176.517C166.212 176.423 166.406 176.309 166.554 176.172Z" fill="#FF7A14"/>
<path d="M173.143 177.865C172.616 177.865 172.143 177.777 171.721 177.603C171.302 177.426 170.943 177.184 170.646 176.871C170.35 176.557 170.119 176.201 169.96 175.799C169.8 175.4 169.717 174.981 169.717 174.539C169.717 173.935 169.854 173.385 170.131 172.884C170.407 172.382 170.8 171.98 171.31 171.678C171.823 171.376 172.427 171.225 173.129 171.225C173.83 171.225 174.431 171.376 174.932 171.681C175.434 171.986 175.81 172.385 176.055 172.881L174.437 173.377C174.297 173.137 174.109 172.955 173.881 172.827C173.65 172.699 173.394 172.636 173.114 172.636C172.801 172.636 172.516 172.716 172.254 172.872C171.994 173.029 171.792 173.251 171.644 173.539C171.496 173.827 171.422 174.16 171.422 174.539C171.422 174.91 171.498 175.24 171.65 175.528C171.801 175.816 172.006 176.041 172.262 176.207C172.516 176.372 172.801 176.454 173.114 176.454C173.314 176.454 173.499 176.42 173.679 176.355C173.855 176.289 174.015 176.198 174.154 176.084C174.294 175.967 174.397 175.836 174.462 175.688L176.081 176.184C175.933 176.506 175.716 176.794 175.431 177.05C175.146 177.307 174.813 177.506 174.428 177.648C174.052 177.794 173.622 177.865 173.143 177.865Z" fill="#FF7A14"/>
<path d="M177.161 177.743V171.339H178.817V175.551L181.723 171.328H183.231V177.745H181.572V173.63L178.705 177.745H177.161V177.743Z" fill="#FF7A14"/>
<path d="M184.801 177.743V171.325H188.409C188.853 171.325 189.215 171.399 189.492 171.544C189.768 171.69 189.97 171.884 190.104 172.117C190.235 172.354 190.301 172.604 190.301 172.875C190.301 173.234 190.221 173.548 190.062 173.816C189.902 174.083 189.651 174.292 189.312 174.44C189.691 174.545 190.002 174.728 190.238 174.987C190.478 175.243 190.597 175.582 190.597 175.998C190.597 176.4 190.503 176.728 190.312 176.987C190.121 177.244 189.851 177.435 189.497 177.557C189.144 177.68 188.722 177.743 188.238 177.743H184.801ZM186.371 173.984H187.99C188.138 173.984 188.269 173.947 188.386 173.875C188.5 173.804 188.591 173.707 188.651 173.585C188.714 173.465 188.745 173.331 188.745 173.186C188.745 172.978 188.677 172.801 188.54 172.661C188.403 172.522 188.223 172.451 188.001 172.451H186.368V173.984H186.371ZM186.371 176.617H188.189C188.337 176.617 188.471 176.58 188.597 176.506C188.719 176.432 188.819 176.335 188.887 176.215C188.956 176.093 188.993 175.959 188.993 175.813C188.993 175.659 188.959 175.523 188.893 175.406C188.828 175.289 188.734 175.195 188.614 175.126C188.494 175.058 188.357 175.024 188.201 175.024H186.371V176.617Z" fill="#FF7A14"/>
<path d="M191.86 177.743V171.325H193.515V173.34H194.652C195.433 173.34 196.032 173.536 196.445 173.93C196.858 174.323 197.063 174.842 197.063 175.486C197.063 175.919 196.975 176.306 196.798 176.651C196.622 176.993 196.365 177.261 196.026 177.455C195.687 177.646 195.268 177.743 194.766 177.743H191.86ZM193.515 176.48H194.504C194.735 176.48 194.92 176.434 195.063 176.346C195.202 176.258 195.308 176.141 195.376 175.993C195.448 175.847 195.482 175.682 195.482 175.494C195.482 175.317 195.448 175.155 195.382 175.015C195.316 174.873 195.211 174.759 195.069 174.676C194.923 174.591 194.732 174.548 194.493 174.548H193.515V176.48ZM198.078 177.743V171.339H199.736V177.743H198.078Z" fill="#FF7A14"/>
<path d="M202.381 171.325L203.743 173.334L203.84 173.553L203.963 173.334L205.311 171.325H207.055L204.803 174.519L207.092 177.74H205.348L203.951 175.745L203.84 175.537L203.743 175.745L202.358 177.74H200.614L202.902 174.557L200.651 171.325H202.381Z" fill="#FF7A14"/>
<path d="M210.503 177.743V176.272C210.699 176.264 210.879 176.215 211.035 176.13C211.192 176.041 211.329 175.89 211.449 175.679C211.568 175.468 211.662 175.169 211.734 174.785C211.802 174.4 211.85 173.91 211.876 173.308L211.962 171.328H216.82V177.657H215.165V172.773H213.421L213.395 173.505C213.361 174.331 213.278 175.015 213.147 175.557C213.016 176.101 212.831 176.531 212.597 176.848C212.361 177.164 212.07 177.389 211.725 177.526C211.38 177.663 210.973 177.734 210.503 177.743Z" fill="#FF7A14"/>
<path d="M224.213 177.865C223.628 177.865 223.115 177.754 222.679 177.529C222.243 177.304 221.887 176.993 221.611 176.597C221.334 176.201 221.152 175.753 221.061 175.255H220.046V177.74H218.391V171.322H220.046V173.807H221.061C221.152 173.306 221.334 172.858 221.611 172.468C221.887 172.077 222.246 171.77 222.694 171.553C223.138 171.333 223.646 171.225 224.215 171.225C224.917 171.225 225.509 171.376 225.997 171.678C226.481 171.98 226.854 172.382 227.114 172.884C227.373 173.385 227.504 173.941 227.504 174.554C227.504 175.164 227.373 175.722 227.108 176.224C226.843 176.725 226.47 177.124 225.982 177.421C225.495 177.717 224.905 177.865 224.213 177.865ZM224.213 176.457C224.526 176.457 224.803 176.378 225.042 176.215C225.281 176.053 225.467 175.83 225.598 175.548C225.729 175.266 225.797 174.933 225.797 174.554C225.797 174.158 225.729 173.816 225.592 173.531C225.458 173.243 225.27 173.023 225.031 172.869C224.791 172.716 224.518 172.639 224.215 172.639C223.919 172.639 223.654 172.718 223.418 172.875C223.184 173.032 222.999 173.254 222.868 173.542C222.736 173.83 222.671 174.166 222.671 174.554C222.671 174.941 222.736 175.28 222.868 175.568C222.999 175.856 223.184 176.075 223.418 176.229C223.651 176.38 223.916 176.457 224.213 176.457Z" fill="#FF7A14"/>
<path d="M228.134 179.313V176.295H228.308C228.473 176.295 228.627 176.249 228.772 176.161C228.915 176.073 229.043 175.919 229.154 175.702C229.265 175.486 229.356 175.186 229.428 174.804C229.496 174.423 229.544 173.932 229.57 173.34L229.644 171.325H234.503V176.295H235.406V179.313H233.959V177.743H229.596V179.313H228.134ZM230.394 176.295H232.842V172.721H231.086L231.049 173.511C231.023 174.046 230.984 174.497 230.932 174.864C230.878 175.232 230.81 175.534 230.721 175.765C230.636 175.998 230.528 176.175 230.394 176.295Z" fill="#FF7A14"/>
<path d="M239.544 177.865C239.025 177.865 238.555 177.777 238.133 177.603C237.714 177.429 237.355 177.187 237.059 176.882C236.763 176.577 236.532 176.226 236.372 175.83C236.213 175.434 236.13 175.018 236.13 174.576C236.13 173.964 236.267 173.405 236.543 172.901C236.82 172.396 237.216 171.989 237.732 171.684C238.247 171.379 238.854 171.225 239.555 171.225C240.265 171.225 240.869 171.379 241.374 171.684C241.878 171.989 242.263 172.394 242.531 172.895C242.798 173.397 242.932 173.938 242.932 174.517C242.932 174.616 242.927 174.716 242.918 174.816C242.91 174.918 242.901 175.001 242.892 175.067H237.885C237.92 175.389 238.017 175.671 238.176 175.913C238.336 176.155 238.544 176.338 238.795 176.463C239.045 176.588 239.316 176.651 239.604 176.651C239.934 176.651 240.245 176.571 240.536 176.412C240.829 176.252 241.029 176.038 241.134 175.776L242.556 176.172C242.399 176.503 242.174 176.794 241.881 177.05C241.587 177.307 241.245 177.506 240.849 177.648C240.459 177.794 240.02 177.865 239.544 177.865ZM237.848 174.021H241.237C241.203 173.699 241.111 173.419 240.96 173.18C240.809 172.944 240.607 172.758 240.362 172.624C240.117 172.49 239.838 172.425 239.533 172.425C239.236 172.425 238.966 172.49 238.723 172.624C238.481 172.758 238.282 172.944 238.131 173.18C237.974 173.419 237.883 173.699 237.848 174.021Z" fill="#FF7A14"/>
<path d="M244.007 177.743V171.339H245.662V175.551L248.569 171.328H250.077V177.745H248.418V173.63L245.551 177.745H244.007V177.743ZM247.047 170.658C246.412 170.658 245.913 170.496 245.551 170.171C245.186 169.846 245.007 169.427 245.007 168.917H246.033C246.033 169.165 246.115 169.37 246.281 169.535C246.446 169.701 246.703 169.783 247.047 169.783C247.392 169.783 247.643 169.706 247.794 169.55C247.945 169.393 248.039 169.182 248.073 168.92H249.099C249.099 169.43 248.917 169.849 248.555 170.174C248.193 170.496 247.691 170.658 247.047 170.658Z" fill="#FF7A14"/>
<path d="M106.616 30.623C112.595 30.623 115.997 33.5184 115.997 38.7647V67.487C115.997 72.7333 112.595 75.7056 106.616 75.7056H103.858V94.1917H97.3289V30.623H106.616ZM103.855 70.2256H106.613C108.819 70.2256 109.554 69.6784 109.554 67.7207V38.6079C109.554 37.2771 109.095 36.8839 108.819 36.6502C108.451 36.2598 107.713 36.1031 106.519 36.1031H103.852V70.2256H103.855Z" fill="#FF7A14"/>
<path d="M129.251 42.7343V94.2059H122.814V42.7343H129.251Z" fill="#FF7A14"/>
<path d="M151.494 30.623V36.1031H145.791V94.1917H139.263V36.1031H133.56V30.623H151.494Z" fill="#FF7A14"/>
<path d="M129.24 100.022V163.052H122.711V133.167L116.365 163.052H110.754L103.858 131.848V163.052H97.3289V100.022H103.399L113.515 145.666L123.082 100.022H129.24Z" fill="white"/>
<path d="M156.002 107.942V154.982C156.002 160.336 152.691 163.443 146.803 163.443H145.883C143.033 163.443 140.73 162.668 139.077 161.191C137.422 159.718 136.595 157.698 136.595 154.982V107.942C136.595 105.303 137.425 103.285 139.077 101.886C140.642 100.413 142.939 99.6346 145.883 99.6346H146.712C149.562 99.6346 151.77 100.41 153.517 101.886C155.173 103.285 156.002 105.303 156.002 107.942ZM149.564 107.862C149.564 105.457 148.553 105.069 146.621 105.069H145.977C144.045 105.069 143.036 105.457 143.036 107.862V155.133C143.036 157.538 144.047 158.005 145.977 158.005H146.715C148.279 158.005 149.564 157.851 149.564 155.133V107.862Z" fill="white"/>
<path d="M182.855 108.095V154.982C182.855 157.541 182.025 159.484 180.279 160.958C178.532 162.357 176.232 163.052 173.565 163.052H163.357V100.022H173.565C176.232 100.022 178.532 100.72 180.279 102.117C182.025 103.593 182.855 105.534 182.855 108.095ZM173.473 157.698C175.679 157.698 176.323 157.076 176.323 155.136V107.942C176.323 106.001 175.679 105.457 173.473 105.457H169.886V157.698H173.473Z" fill="white"/>
<path d="M206.487 157.698V163.052H190.21V100.022H206.214V105.457H196.647V127.502H205.384V132.936H196.647V157.698H206.487Z" fill="white"/>
<path d="M226.906 157.698V163.052H212.742V100.022H219.18V157.698H226.906Z" fill="white"/>
<path d="M251 139.687V154.979C251 160.334 247.689 163.44 241.801 163.44H240.881C238.031 163.44 235.731 162.665 234.076 161.188C232.329 159.635 231.502 157.541 231.502 154.979V135.652H238.031V155.136C238.031 157.541 239.043 158.008 240.975 158.008H241.71C243.274 158.008 244.469 157.854 244.469 155.136V139.998C244.469 137.516 244.283 136.196 244.007 135.572C243.733 134.951 243.272 133.942 241.892 132.466L235.364 125.482C233.984 124.082 233.064 122.843 232.605 121.677C232.144 120.668 231.867 119.038 231.867 116.864V107.939C231.867 105.22 232.696 103.202 234.258 101.883C235.914 100.41 238.119 99.6317 240.878 99.6317H241.707C244.466 99.6317 246.674 100.407 248.327 101.883C249.892 103.359 250.718 105.377 250.718 107.939V122.763H244.189V107.859C244.189 105.143 243.084 105.066 241.616 105.066H240.972C239.499 105.066 238.305 105.143 238.305 107.859V116.707C238.305 118.648 238.581 119.503 238.672 119.813C238.949 120.124 239.134 120.899 240.513 122.142L240.604 122.219L247.136 129.283C248.7 130.913 249.709 132.543 250.262 134.019C250.724 135.575 251 137.436 251 139.687Z" fill="white"/>
</svg>
