<svg width="85" height="56" viewBox="0 0 85 56" fill="none" xmlns="http://www.w3.org/2000/svg">
<path d="M1.45917 45.5607V48.4064H0.729581C0.326517 48.4064 0 48.0654 0 47.6516V46.3107C0 45.8969 0.331362 45.5569 0.729581 45.5607H1.45917Z" fill="#FF7A14"/>
<path d="M4.68852 42.0708L4.67883 52.2326H3.3834C2.94158 52.2326 2.586 51.8916 2.586 51.4788L2.59569 42.8207C2.60053 42.4021 2.95612 42.0659 3.3931 42.0659L4.68852 42.0708Z" fill="#FF7A14"/>
<path d="M8.84904 39.757L8.82966 53.9825C8.82966 54.3962 8.47504 54.7324 8.03322 54.7324H6.60312C6.16615 54.7285 5.81152 54.3913 5.81152 53.9786L5.82122 46.8649L5.82606 39.7522C5.82606 39.3394 6.18552 39.0022 6.6225 39.0022H8.0526C8.49345 39.0022 8.84904 39.3394 8.84904 39.757Z" fill="#FF7A14"/>
<path d="M30.7123 51.3054V55.4087C29.1514 55.4484 27.6496 54.8632 26.2582 53.6569C28.2455 52.0214 29.4362 51.2404 30.7123 51.3054Z" fill="white"/>
<path d="M30.7123 39.821V43.3342C30.3974 43.3342 30.1116 43.2741 29.9565 43.1792C28.5255 42.2684 30.097 40.6271 25.8435 40.4973C26.7243 40.0612 28.696 39.7958 30.7123 39.821Z" fill="white"/>
<path d="M19.2531 27.7872C20.1261 29.7347 21.0814 29.9972 23.5821 28.9063C22.2005 28.0187 21.1328 26.4869 19.2531 27.7872Z" fill="white"/>
<path d="M30.7123 10.4118V25.9947C29.9566 26.0499 29.2309 25.3688 28.3802 23.9329C26.9191 27.1254 25.208 28.0914 22.2247 26.4753C19.6329 25.0694 17.7707 26.1953 15.174 27.1855C17.1961 29.0768 18.9818 30.7482 21.2636 32.8904C19.6222 35.3524 17.7261 38.4151 15.8794 41.1871C13.9532 39.4257 11.9863 37.794 10.2442 36.0975C9.07863 34.9619 8.91295 31.1638 10.0989 29.5467C11.5551 27.5653 11.5697 25.7031 10.7093 23.4765C9.26854 19.7734 10.6192 16.0053 13.9222 13.7681C15.0432 13.0124 16.2892 12.4223 17.3405 11.5862C20.003 9.45941 22.965 9.20943 26.1275 9.95452C27.6651 10.3169 29.1863 10.437 30.7123 10.4118Z" fill="white"/>
<path d="M16.4191 47.9983V48.5016C16.42 48.549 16.422 48.5978 16.4239 48.648L9.97198 48.6424L9.97683 46.0927L14.8669 46.0997H16.4801C16.4569 46.4454 16.4414 46.7953 16.4288 47.148C16.4239 47.4296 16.4191 47.7098 16.4191 47.9983Z" fill="#FF7A14"/>
<path d="M30.6461 28.6218V39.085C29.0997 39.0753 27.5534 39.115 26.0167 39.2255C25.6863 39.2507 25.3666 39.4609 25.0362 39.7506C24.17 40.5219 24.1758 41.8774 25.0458 42.6428C25.9072 43.4034 26.663 44.0642 27.5185 44.5545C30.6355 46.3411 30.0657 48.3526 27.6832 50.7603C26.2376 52.2214 24.2455 53.1515 22.454 54.2532C22.0335 54.5129 21.4028 54.6582 20.9232 54.5632C19.777 54.3375 18.3604 52.6564 17.4099 50.9299C17.2549 50.645 17.1144 50.365 16.9846 50.084C16.8247 49.7265 16.6871 49.3786 16.5825 49.0521C16.565 48.9998 16.5495 48.9484 16.534 48.8981C16.4362 48.5657 16.378 48.2576 16.3587 47.9892C16.3567 47.9544 16.3548 47.9204 16.3538 47.8875V47.5377C16.3538 47.3372 16.3587 47.1424 16.3635 46.9467C16.3761 46.7016 16.3916 46.4584 16.4149 46.2181C16.4284 46.066 16.4449 45.9148 16.4643 45.7656C16.4895 45.5631 16.5185 45.3625 16.5524 45.1639C17.1028 41.8522 18.7664 39.0172 20.8631 36.3033C21.9337 34.9168 22.9695 33.4605 23.7553 31.9045C24.886 29.6721 27.753 28.5569 30.6461 28.6218Z" fill="white"/>
<path d="M16.8008 7.11175C16.6884 4.74956 16.7698 2.37963 16.7698 0.0116272C13.6151 3.78938 12.0241 8.05062 11.8177 13.1994C13.2285 12.0473 14.302 11.1366 15.4124 10.2733C16.4588 9.4594 16.8648 8.46918 16.8008 7.11175Z" fill="white"/>
<path d="M38.2552 7.10013C38.3676 4.73794 38.2863 2.368 38.2863 0C41.441 3.77776 42.3053 7.54679 42.5116 12.6955C42.3867 11.8894 42.2442 11.7615 41.8586 11.2218C41.5592 10.8033 40.5942 9.71617 39.8287 9.35961C38.6331 8.80346 38.1903 8.45853 38.2552 7.10013Z" fill="#FF7A14"/>
<path d="M35.9095 10.4118C37.9422 10.4118 39.0991 11.3963 39.0991 13.18V22.9456C39.0991 24.7293 37.9422 25.7399 35.9095 25.7399H34.9716V32.0252H32.7518V10.4118H35.9095ZM34.9706 23.8767H35.9085C36.6584 23.8767 36.9084 23.6907 36.9084 23.025V13.1267C36.9084 12.6742 36.7524 12.5405 36.6584 12.4611C36.5334 12.3283 36.2825 12.2751 35.8765 12.2751H34.9696V23.8767H34.9706Z" fill="#FF7A14"/>
<path d="M43.6055 14.5297V32.03H41.4167V14.5297H43.6055Z" fill="#FF7A14"/>
<path d="M51.1678 10.4118V12.2751H49.229V32.0252H47.0093V12.2751H45.0705V10.4118H51.1678Z" fill="#FF7A14"/>
<path d="M43.6016 34.0075V55.4377H41.3818V45.2769L39.2241 55.4377H37.3163L34.9716 44.8283V55.4377H32.7518V34.0075H34.8156L38.2552 49.5265L41.5078 34.0075H43.6016Z" fill="white"/>
<path d="M52.7006 36.7001V52.6938C52.7006 54.5144 51.5748 55.5705 49.573 55.5705H49.2601C48.2912 55.5705 47.5083 55.3069 46.9463 54.805C46.3834 54.3041 46.1024 53.6172 46.1024 52.6938V36.7001C46.1024 35.8029 46.3844 35.1169 46.9463 34.6412C47.4783 34.1403 48.2592 33.8758 49.2601 33.8758H49.542C50.5109 33.8758 51.2618 34.1393 51.8558 34.6412C52.4187 35.1169 52.7006 35.8029 52.7006 36.7001ZM50.5119 36.673C50.5119 35.8552 50.1679 35.7235 49.511 35.7235H49.2921C48.6351 35.7235 48.2921 35.8552 48.2921 36.673V52.7452C48.2921 53.5629 48.6361 53.7218 49.2921 53.7218H49.543C50.0749 53.7218 50.5119 53.6695 50.5119 52.7452V36.673Z" fill="white"/>
<path d="M61.8306 36.7524V52.6938C61.8306 53.5639 61.5486 54.2247 60.9547 54.7256C60.3608 55.2013 59.5789 55.4377 58.672 55.4377H55.2014V34.0075H58.672C59.5789 34.0075 60.3608 34.2449 60.9547 34.7197C61.5486 35.2216 61.8306 35.8814 61.8306 36.7524ZM58.641 53.6172C59.3909 53.6172 59.6099 53.4059 59.6099 52.7461V36.7001C59.6099 36.0403 59.3909 35.8552 58.641 35.8552H57.4211V53.6172H58.641Z" fill="white"/>
<path d="M69.8656 53.6172V55.4377H64.3313V34.0075H69.7726V35.8552H66.52V43.3507H69.4907V45.1984H66.52V53.6172H69.8656Z" fill="white"/>
<path d="M76.8079 53.6172V55.4377H71.9924V34.0075H74.1812V53.6172H76.8079Z" fill="white"/>
<path d="M85 47.4937V52.6928C85 54.5134 83.8741 55.5695 81.8724 55.5695H81.5594C80.5905 55.5695 79.8086 55.306 79.2457 54.8041C78.6518 54.276 78.3708 53.5639 78.3708 52.6928V46.1217H80.5905V52.7461C80.5905 53.5639 80.9345 53.7228 81.5914 53.7228H81.8414C82.3733 53.7228 82.7793 53.6705 82.7793 52.7461V47.5993C82.7793 46.7554 82.7163 46.3068 82.6223 46.0946C82.5293 45.8834 82.3724 45.5404 81.9034 45.0385L79.6836 42.6637C79.2147 42.188 78.9017 41.7665 78.7458 41.3702C78.5888 41.0272 78.4948 40.473 78.4948 39.7337V36.6991C78.4948 35.7748 78.7768 35.0888 79.3077 34.6402C79.8706 34.1393 80.6206 33.8748 81.5585 33.8748H81.8404C82.7783 33.8748 83.5292 34.1383 84.0912 34.6402C84.6231 35.1421 84.9041 35.8281 84.9041 36.6991V41.7394H82.6843V36.672C82.6843 35.7487 82.3084 35.7225 81.8094 35.7225H81.5905C81.0895 35.7225 80.6836 35.7487 80.6836 36.672V39.6805C80.6836 40.3403 80.7775 40.631 80.8085 40.7366C80.9025 40.8422 80.9655 41.1057 81.4345 41.5282L81.4655 41.5543L83.6862 43.9562C84.2181 44.5104 84.5611 45.0647 84.7491 45.5665C84.906 46.0956 85 46.7283 85 47.4937Z" fill="white"/>
</svg>
