<svg width="11" height="11" viewBox="0 0 11 11" fill="none" xmlns="http://www.w3.org/2000/svg">
<path fill-rule="evenodd" clip-rule="evenodd" d="M9.25198 5.13999C9.25198 7.41098 7.41098 9.25198 5.13999 9.25198C2.869 9.25198 1.028 7.41098 1.028 5.13999C1.028 2.869 2.869 1.028 5.13999 1.028C7.41098 1.028 9.25198 2.869 9.25198 5.13999ZM10.28 5.13999C10.28 7.97873 7.97873 10.28 5.13999 10.28C2.30125 10.28 0 7.97873 0 5.13999C0 2.30125 2.30125 0 5.13999 0C7.97873 0 10.28 2.30125 10.28 5.13999ZM4.626 4.62598L5.65399 4.62601L7.19599 4.62598C7.47986 4.62598 7.70999 4.85611 7.70999 5.13998C7.70999 5.42386 7.47986 5.65398 7.19599 5.65398H5.65399H4.626H3.084C2.80012 5.65398 2.57 5.42386 2.57 5.13998C2.57 4.85611 2.80012 4.62598 3.084 4.62598H4.626Z" fill="#505050"/>
</svg>
