<svg width="11" height="12" viewBox="0 0 11 12" fill="none" xmlns="http://www.w3.org/2000/svg">
<path fill-rule="evenodd" clip-rule="evenodd" d="M9.76163 5.99998C9.76163 8.27097 7.92062 10.112 5.64963 10.112C3.37864 10.112 1.53764 8.27097 1.53764 5.99998C1.53764 3.72898 3.37864 1.88798 5.64963 1.88798C7.92062 1.88798 9.76163 3.72898 9.76163 5.99998ZM10.7896 5.99998C10.7896 8.83871 8.48837 11.14 5.64963 11.14C2.8109 11.14 0.509644 8.83871 0.509644 5.99998C0.509644 3.16124 2.8109 0.859985 5.64963 0.859985C8.48837 0.859985 10.7896 3.16124 10.7896 5.99998ZM5.13561 3.94392C5.13561 3.66004 5.36574 3.42992 5.64961 3.42992C5.93349 3.42992 6.16361 3.66004 6.16361 3.94392V5.48591H7.70561C7.98948 5.48591 8.21961 5.71604 8.21961 5.99991C8.21961 6.28378 7.98948 6.51391 7.70561 6.51391H6.16361V8.05591C6.16361 8.33978 5.93349 8.56991 5.64961 8.56991C5.36574 8.56991 5.13561 8.33978 5.13561 8.05591V6.51391H3.59362C3.30974 6.51391 3.07962 6.28378 3.07962 5.99991C3.07962 5.71604 3.30974 5.48591 3.59362 5.48591H5.13561V3.94392Z" fill="#505050"/>
</svg>
