<svg width="20" height="20" viewBox="0 0 20 20" fill="none" xmlns="http://www.w3.org/2000/svg">
<path d="M1.503 4.726C3.268 1.89 6.414 0 9.998 0C15.516 0 19.995 4.48 19.995 9.997C19.995 15.516 15.516 19.996 9.998 19.996C4.753 19.996 0.445 15.948 0.0320001 10.808C0.00800006 10.506 0.221 9.997 0.781 9.997C1.172 9.997 1.496 10.297 1.528 10.687C1.879 15.056 5.54 18.496 9.998 18.496C14.688 18.496 18.495 14.688 18.495 9.997C18.495 5.308 14.688 1.5 9.998 1.5C6.961 1.5 4.294 3.097 2.792 5.495L4.783 5.5C5.197 5.5 5.533 5.836 5.533 6.25C5.533 6.664 5.197 7 4.783 7H0.75C0.336 7 0 6.664 0 6.25V2.201C0 1.787 0.336 1.451 0.75 1.451C1.164 1.451 1.5 1.786 1.5 2.201L1.503 4.726ZM8.99 4.747L8.997 10.31C8.997 10.598 9.162 10.86 9.421 10.985L13.399 12.913C13.772 13.093 14.22 12.937 14.4 12.564C14.58 12.191 14.424 11.743 14.051 11.563L10.496 9.838L10.49 4.745C10.49 4.331 10.153 3.996 9.74 3.996C9.326 3.996 8.99 4.333 8.99 4.747Z" fill="#505050"/>
</svg>
