<svg width="34" height="34" viewBox="0 0 34 34" fill="none" xmlns="http://www.w3.org/2000/svg">
<path d="M17 0.333344C7.80004 0.333344 0.333374 7.80001 0.333374 17C0.333374 26.2 7.80004 33.6667 17 33.6667C26.2 33.6667 33.6667 26.2 33.6667 17C33.6667 7.80001 26.2 0.333344 17 0.333344ZM18.4667 26.6V28.6667H15.55V26.5167C14.3167 26.2167 11.5667 25.2333 10.5167 21.5833L13.2667 20.4667C13.3667 20.8333 14.2334 23.95 17.2667 23.95C18.8167 23.95 20.5667 23.15 20.5667 21.2667C20.5667 19.6667 19.4 18.8333 16.7667 17.8833C14.9334 17.2333 11.1834 16.1667 11.1834 12.3667C11.1834 12.2 11.2 8.36668 15.55 7.43334V5.33334H18.4667V7.40001C21.5334 7.93334 22.65 10.3833 22.9 11.1167L20.2667 12.2333C20.0834 11.65 19.2834 10 17.1 10C15.9334 10 14.0834 10.6167 14.0834 12.3167C14.0834 13.9 15.5167 14.5 18.4834 15.4833C22.4834 16.8667 23.5 18.9 23.5 21.2333C23.5 25.6167 19.3334 26.45 18.4667 26.6Z" fill="#CCCCCC"/>
</svg>
