<?xml version="1.0" encoding="utf-8"?>
<!-- Generator: Adobe Illustrator 26.5.0, SVG Export Plug-In . SVG Version: 6.00 Build 0)  -->
<svg version="1.1" id="Слой_1" xmlns="http://www.w3.org/2000/svg" xmlns:xlink="http://www.w3.org/1999/xlink" x="0px" y="0px"
	 viewBox="0 0 1920 1080" style="enable-background:new 0 0 1920 1080;" xml:space="preserve">
<style type="text/css">
	.st0{fill:#FF7101;}
</style>
<path class="st0" d="M698.04,706.54h-1.58c1.39,4.67,3.34,9.71,5.67,14.94h1.58L698.04,706.54z M695.58,667.09
	c-0.63,4.85-1.01,9.83-1.26,14.87h1.57l1.26-14.87H695.58z"/>
<path class="st0" d="M702.13,721.48l-119.11-0.13l-0.06,69.96c0,13.93-11.34,25.33-25.34,25.27h-18.78
	c-13.99,0-25.33-11.41-25.33-25.34l0.06-9.32h-17.08c-13.92,0-25.27-11.41-25.27-25.34v-27.73h-9.58
	c-13.48,0-24.45-11.4-24.39-25.33v-18.59c0-13.99,11.03-25.34,24.52-25.34h9.58v-23.13c0-13.92,11.4-25.27,25.33-25.27h17.08v-17.2
	c0-13.99,11.41-25.34,25.34-25.34l18.84,0.06c13.93,0,25.27,11.35,25.27,25.34l-0.06,72.98l112.43,0.06
	c-0.63,4.85-1.01,9.83-1.26,14.87c-0.06,2.46-0.13,4.92-0.13,7.44v4.41c0.13,3.66,0.89,8.01,2.27,12.73
	C697.85,711.21,699.8,716.25,702.13,721.48z"/>
<path class="st0" d="M987.19,504.87V271.77h23.92v233.09H987.19z"/>
<path d="M892.15,789.7V528.21h23.88l42.49,177.81h-12.6l41.31-177.81h23.88l0.29,261.49h-26.66l-0.29-158.01h4.54l-30.91,132.23
	h-12.89l-31.79-132.23h5.57V789.7H892.15z"/>
<path d="M1083.61,790.08c-8.2,0-15.77-3.29-22.7-9.91c-6.93-6.6-12.96-15.95-18.09-28.07c-5.12-12.1-9.11-26.22-11.93-42.36
	c-2.83-16.14-4.25-33.88-4.25-53.2c0-19.33,1.42-37.06,4.25-53.2c2.83-16.16,6.81-30.28,11.93-42.38
	c5.13-12.11,11.16-21.46,18.09-28.07c6.93-6.6,14.5-9.91,22.7-9.91c8.3,0,15.89,3.31,22.78,9.91c6.89,6.6,12.87,15.95,17.94,28.07
	c5.08,12.1,9.06,26.22,11.94,42.38c2.88,16.14,4.32,33.87,4.32,53.2c0,19.31-1.44,37.11-4.32,53.37
	c-2.88,16.28-6.86,30.4-11.94,42.38c-5.08,11.99-11.06,21.28-17.94,27.88C1099.5,786.79,1091.91,790.08,1083.61,790.08z
	 M1083.61,729.9c3.9,0,7.55-1.71,10.91-5.14c3.37-3.41,6.3-8.38,8.79-14.86c2.49-6.47,4.45-14.25,5.87-23.29
	c1.41-9.04,2.12-19.08,2.12-30.08c0-11.26-0.71-21.34-2.12-30.27c-1.42-8.94-3.37-16.64-5.87-23.12
	c-2.49-6.48-5.42-11.43-8.79-14.86c-3.37-3.43-7.01-5.14-10.91-5.14c-3.9,0-7.54,1.71-10.91,5.14c-3.37,3.43-6.3,8.38-8.79,14.86
	c-2.49,6.48-4.45,14.18-5.86,23.12c-1.42,8.92-2.13,19.01-2.13,30.27c0,11,0.71,21.04,2.13,30.08c1.41,9.04,3.37,16.82,5.86,23.29
	c2.49,6.48,5.42,11.45,8.79,14.86C1076.07,728.2,1079.71,729.9,1083.61,729.9z"/>
<path d="M1155.82,789.7V528.21h48.49c11.33,0,21.29,5.37,29.88,16.07c8.59,10.7,15.31,25.78,20.14,45.2
	c4.83,19.42,7.25,42.58,7.25,69.48c0,26.65-2.42,49.73-7.25,69.29c-4.84,19.54-11.55,34.67-20.14,45.37
	c-8.6,10.72-18.56,16.07-29.88,16.07H1155.82z M1184.83,730.67h18.31c5.86,0,10.96-2.8,15.31-8.39c4.35-5.61,7.74-13.83,10.18-24.67
	c2.44-10.82,3.66-23.71,3.66-38.65c0-15.2-1.22-28.14-3.66-38.86c-2.45-10.7-5.84-18.87-10.18-24.46
	c-4.35-5.61-9.45-8.41-15.31-8.41h-18.31V730.67z"/>
<path d="M1305.53,732.54h53.62v57.15h-82.33V528.21h80.42v57.15h-51.71V732.54z M1303.48,629.45h47.61v55.28h-47.61V629.45z"/>
<path d="M1375.26,789.7V528.21h29.01v202.84h48.92v58.65H1375.26z"/>
<path d="M1506.66,789.7c-8.4,0-16.48-2.62-24.24-7.87c-7.76-5.25-14.09-12.03-18.96-20.34l9.52-53.48
	c4.59,7.33,9.89,13.37,15.9,18.13c6,4.77,11.98,7.14,17.94,7.14c4,0,7.23-0.9,9.67-2.74c2.44-1.82,4.22-4.26,5.35-7.33
	c1.12-3.05,1.68-6.64,1.68-10.8c0-5.86-1.08-10.51-3.22-13.92c-2.15-3.42-4.93-6.24-8.35-8.43c-3.42-2.2-7.2-4.4-11.35-6.59
	c-4.16-2.2-8.3-5.01-12.45-8.43c-4.15-3.41-7.94-7.87-11.36-13.37c-3.42-5.49-6.2-12.69-8.34-21.6c-2.15-8.91-3.22-20.21-3.22-33.89
	c0-15.4,1.68-29.32,5.05-41.78c3.37-12.45,8.42-22.47,15.16-30.04c6.74-7.56,15.14-11.36,25.2-11.36c6.74,0,13.35,1.89,19.85,5.67
	c6.49,3.8,12.28,9.35,17.36,16.68l-8.94,53.85c-4.88-6.59-9.72-11.53-14.5-14.84c-4.78-3.29-9.42-4.94-13.92-4.94
	c-4.01,0-7.23,1.04-9.67,3.12c-2.44,2.08-4.2,4.82-5.27,8.23c-1.08,3.42-1.61,7.33-1.61,11.74c0,5.61,1.05,10.07,3.15,13.36
	c2.1,3.31,4.88,6,8.34,8.06c3.47,2.08,7.28,4.23,11.43,6.42c4.15,2.2,8.3,4.94,12.45,8.25c4.15,3.29,7.93,7.68,11.35,13.19
	c3.42,5.49,6.18,12.69,8.28,21.62c2.1,8.91,3.15,20.09,3.15,33.51c0,14.91-1.69,28.64-5.05,41.21
	c-3.37,12.59-8.41,22.66-15.09,30.22C1525.25,785.91,1516.82,789.7,1506.66,789.7z"/>
<path d="M874.2,738.38v51.68c-19.66,0.5-38.57-6.87-56.09-22.06C843.13,747.39,858.13,737.56,874.2,738.38z"/>
<path d="M874.2,593.74v44.24c-3.97,0-7.56-0.76-9.52-1.95c-18.02-11.47,1.76-32.14-51.8-33.78
	C823.97,596.77,848.8,593.43,874.2,593.74z"/>
<path d="M729.88,442.19c10.99,24.52,23.02,27.84,54.53,14.09C767,445.1,753.55,425.81,729.88,442.19z"/>
<path d="M874.2,223.36v196.25c-9.52,0.69-18.65-7.88-29.37-25.96c-18.4,40.21-39.95,52.37-77.52,32.01
	c-32.65-17.71-56.09-3.53-88.8,8.95c25.46,23.82,47.96,44.87,76.7,71.84c-20.67,31.01-44.56,69.58-67.81,104.49
	c-24.26-22.18-49.03-42.73-70.96-64.09c-14.68-14.31-16.76-62.14-1.83-82.5c18.34-24.96,18.53-48.4,7.69-76.45
	c-18.15-46.64-1.13-94.09,40.46-122.26c14.12-9.52,29.81-16.95,43.04-27.48c33.53-26.78,70.84-29.94,110.67-20.55
	C835.82,222.17,854.98,223.68,874.2,223.36z"/>
<path d="M874.18,451.18v131.78c-19.47-0.13-38.94,0.38-58.29,1.76c-4.16,0.32-8.2,2.96-12.35,6.62
	c-10.91,9.71-10.84,26.78,0.12,36.43c10.84,9.58,20.36,17.89,31.13,24.07c39.27,22.5,32.08,47.83,2.08,78.15
	c-18.21,18.4-43.29,30.12-65.85,43.99c-5.3,3.27-13.24,5.1-19.29,3.9c-14.43-2.83-32.27-24.01-44.24-45.75
	c-1.95-3.59-3.72-7.12-5.36-10.65c-2.33-5.23-4.28-10.27-5.67-14.94c-1.38-4.72-2.14-9.07-2.27-12.73v-4.41
	c0-2.52,0.07-4.98,0.13-7.44c0.25-5.04,0.63-10.02,1.26-14.87c5.54-45,27.41-82.93,55.4-119.17c13.48-17.46,26.53-35.8,36.42-55.4
	C801.64,464.41,837.76,450.36,874.18,451.18z"/>
<path d="M698.99,181.8c-1.41-29.74-0.39-59.6-0.39-89.41c-39.73,47.58-59.77,101.24-62.37,166.08
	c17.77-14.51,31.29-25.98,45.27-36.85C694.7,211.37,699.8,198.9,698.99,181.8z"/>
<path class="st0" d="M946,181.8c1.41-29.74,0.39-59.6,0.39-89.41c39.73,47.58,50.62,95.04,53.22,159.88
	c-2.43-9.57-3.37-11.76-8.23-18.56c-3.77-5.27-15.92-18.97-25.57-23.46C950.77,203.25,945.19,198.9,946,181.8z"/>
<path class="st0" d="M892.15,504.87v-281.5h38.77c7.75,0,14.43,4.17,20.04,12.47c5.62,8.3,9.95,20.31,13.02,35.98
	c3.07,15.69,4.6,22.58,4.6,44.03c0,21.17-1.53,40.66-4.6,56.2c-3.07,15.54-7.41,27.55-13.02,35.98
	c-5.61,8.45-12.29,12.68-20.04,12.68h-25.44l10.66-24.03v108.18H892.15z M916.13,405.13l-10.66-32.74h23.99
	c5,0,8.74-7.46,11.21-14.7c2.46-7.26,3.7-31.63,3.7-44.5c0-13.15-1.23-23.32-3.7-30.58c-2.47-7.24-6.2-10.85-11.21-10.85h-23.99
	l10.66-22.26V405.13z"/>
<path class="st0" d="M1061.2,504.87V271.77h-31.49v-48.41h87.05v48.41h-31.35v233.09H1061.2z"/>
<g>
	<path class="st0" d="M883.69,858.42v-13.61h2.01c0.95,0,1.78-0.37,2.49-1.11c0.71-0.74,1.3-1.92,1.8-3.54
		c0.49-1.62,0.89-3.73,1.19-6.33c0.3-2.59,0.5-5.75,0.61-9.45l0.32-10.75h25.04v31.18h4.98v13.61h-6.41v-7.2H890.1v7.2H883.69z
		 M894.44,844.81h15.46v-24.77h-11.17l-0.1,5.3c-0.11,3.67-0.31,6.79-0.61,9.37c-0.3,2.58-0.73,4.69-1.27,6.35
		C896.19,842.71,895.43,843.97,894.44,844.81z"/>
	<path class="st0" d="M940.23,851.75c-2.22,0-4.23-0.38-6.04-1.13c-1.8-0.75-3.34-1.78-4.6-3.09s-2.25-2.81-2.94-4.5
		c-0.69-1.69-1.03-3.48-1.03-5.37c0-2.62,0.59-5.01,1.77-7.17c1.18-2.16,2.87-3.9,5.08-5.21c2.2-1.31,4.81-1.96,7.8-1.96
		c3.04,0,5.63,0.66,7.79,1.97s3.8,3.04,4.95,5.19c1.14,2.15,1.72,4.47,1.72,6.95c0,0.42-0.02,0.85-0.06,1.29s-0.07,0.79-0.1,1.07
		h-21.44c0.14,1.38,0.56,2.59,1.24,3.62c0.69,1.03,1.58,1.82,2.65,2.35c1.08,0.53,2.23,0.8,3.47,0.8c1.41,0,2.74-0.34,3.99-1.03
		c1.26-0.69,2.11-1.6,2.57-2.73l6.09,1.69c-0.67,1.41-1.64,2.66-2.89,3.76c-1.26,1.09-2.73,1.95-4.42,2.57
		C944.15,851.44,942.28,851.75,940.23,851.75z M932.98,835.28h14.51c-0.14-1.38-0.54-2.58-1.19-3.6c-0.65-1.02-1.51-1.81-2.57-2.38
		c-1.06-0.57-2.25-0.85-3.55-0.85c-1.27,0-2.42,0.28-3.46,0.85c-1.04,0.57-1.89,1.36-2.54,2.38
		C933.52,832.71,933.12,833.9,932.98,835.28z"/>
	<path class="st0" d="M957.33,851.22v-6.3c0.84-0.03,1.61-0.24,2.28-0.62c0.67-0.38,1.26-1.02,1.77-1.93
		c0.51-0.91,0.92-2.18,1.22-3.83c0.3-1.64,0.5-3.75,0.61-6.32l0.37-8.48h20.8v27.1h-7.09v-20.91h-7.47l-0.1,3.14
		c-0.14,3.53-0.5,6.46-1.06,8.79c-0.57,2.33-1.35,4.17-2.36,5.52c-1.01,1.35-2.25,2.32-3.74,2.9
		C961.09,850.88,959.34,851.18,957.33,851.22z"/>
	<path class="st0" d="M989.2,843.12c0-1.78,0.5-3.34,1.51-4.68c1.01-1.34,2.41-2.38,4.21-3.11c1.8-0.73,3.87-1.1,6.19-1.1
		c1.17,0,2.35,0.09,3.55,0.26c1.2,0.18,2.24,0.46,3.12,0.85v-1.47c0-1.73-0.52-3.07-1.56-4c-1.04-0.94-2.58-1.4-4.63-1.4
		c-1.52,0-2.97,0.26-4.35,0.79c-1.37,0.53-2.82,1.3-4.34,2.33l-2.28-4.66c1.83-1.2,3.72-2.1,5.64-2.7c1.93-0.6,3.95-0.9,6.06-0.9
		c3.95,0,7.03,0.98,9.24,2.92c2.21,1.95,3.31,4.73,3.31,8.35v8.71c0,0.73,0.13,1.26,0.39,1.57c0.26,0.31,0.7,0.5,1.3,0.58v5.77
		c-0.63,0.1-1.21,0.19-1.72,0.26c-0.52,0.07-0.95,0.1-1.3,0.1c-1.42,0-2.48-0.32-3.21-0.95c-0.72-0.64-1.17-1.41-1.35-2.33
		l-0.16-1.43c-1.2,1.55-2.7,2.75-4.5,3.6c-1.8,0.85-3.64,1.27-5.5,1.27c-1.84,0-3.49-0.38-4.95-1.12c-1.46-0.75-2.61-1.78-3.44-3.09
		C989.61,846.23,989.2,844.76,989.2,843.12z M1006.46,844.49c0.39-0.41,0.71-0.82,0.95-1.24s0.37-0.79,0.37-1.14v-2.74
		c-0.84-0.34-1.77-0.61-2.75-0.8c-0.99-0.19-1.93-0.29-2.81-0.29c-1.83,0-3.34,0.39-4.52,1.16c-1.19,0.77-1.78,1.8-1.78,3.07
		c0,0.69,0.2,1.34,0.58,1.96c0.39,0.62,0.95,1.12,1.69,1.5c0.74,0.38,1.62,0.57,2.65,0.57c1.06,0,2.1-0.2,3.13-0.59
		C1004.99,845.57,1005.82,845.08,1006.46,844.49z"/>
	<path class="st0" d="M1034.62,851.75c-2.22,0-4.23-0.38-6.04-1.13c-1.8-0.75-3.34-1.78-4.6-3.09s-2.25-2.81-2.94-4.5
		c-0.69-1.69-1.03-3.48-1.03-5.37c0-2.62,0.59-5.01,1.77-7.17c1.18-2.16,2.87-3.9,5.08-5.21c2.2-1.31,4.81-1.96,7.8-1.96
		c3.04,0,5.63,0.66,7.79,1.97s3.8,3.04,4.95,5.19c1.14,2.15,1.72,4.47,1.72,6.95c0,0.42-0.02,0.85-0.06,1.29
		c-0.04,0.44-0.07,0.79-0.1,1.07h-21.44c0.14,1.38,0.56,2.59,1.24,3.62c0.69,1.03,1.58,1.82,2.65,2.35c1.08,0.53,2.23,0.8,3.47,0.8
		c1.41,0,2.74-0.34,3.99-1.03c1.26-0.69,2.11-1.6,2.57-2.73l6.09,1.69c-0.67,1.41-1.64,2.66-2.89,3.76
		c-1.26,1.09-2.73,1.95-4.42,2.57C1038.53,851.44,1036.66,851.75,1034.62,851.75z M1027.36,835.28h14.51
		c-0.14-1.38-0.54-2.58-1.19-3.6c-0.65-1.02-1.51-1.81-2.57-2.38c-1.06-0.57-2.25-0.85-3.55-0.85c-1.27,0-2.42,0.28-3.46,0.85
		c-1.04,0.57-1.89,1.36-2.54,2.38C1027.9,832.71,1027.5,833.9,1027.36,835.28z"/>
	<path class="st0" d="M1053.73,851.22v-27.47h7.41l8.68,15.88l8.73-15.88h7.31v27.47h-6.73v-17.77l-7.09,12.9h-4.45l-7.15-12.9
		v17.77H1053.73z"/>
	<path class="st0" d="M1105.6,851.22v-27.47h7.09v10.32h2.38l7.52-10.32h7.73l-9.85,13.23l10.91,14.24h-8.1l-8.31-10.91h-2.28v10.91
		H1105.6z"/>
	<path class="st0" d="M1152.67,851.75c-2.15,0-4.05-0.48-5.69-1.44c-1.64-0.96-2.92-2.26-3.84-3.9v16.08h-7.09v-38.75h6.19v4.76
		c1.06-1.6,2.4-2.87,4.03-3.79c1.62-0.93,3.48-1.39,5.56-1.39c1.87,0,3.59,0.37,5.16,1.1c1.57,0.73,2.94,1.75,4.1,3.06
		c1.16,1.31,2.07,2.81,2.73,4.5c0.65,1.69,0.98,3.52,0.98,5.47c0,2.65-0.52,5.06-1.56,7.23c-1.05,2.17-2.47,3.88-4.29,5.16
		C1157.12,851.11,1155.03,851.75,1152.67,851.75z M1150.29,845.71c1.09,0,2.08-0.22,2.96-0.67c0.88-0.45,1.65-1.06,2.3-1.84
		c0.65-0.78,1.15-1.66,1.48-2.65c0.34-0.99,0.5-2.02,0.5-3.09c0-1.14-0.18-2.2-0.55-3.17c-0.38-0.97-0.91-1.82-1.62-2.57
		c-0.7-0.74-1.53-1.32-2.46-1.74c-0.94-0.42-1.95-0.62-3.04-0.62c-0.67,0-1.35,0.11-2.04,0.34c-0.69,0.22-1.35,0.54-1.99,0.95
		c-0.63,0.42-1.19,0.9-1.67,1.45c-0.47,0.55-0.82,1.15-1.03,1.81v6.44c0.42,1,1,1.91,1.72,2.74c0.72,0.83,1.56,1.47,2.51,1.94
		C1148.32,845.48,1149.3,845.71,1150.29,845.71z"/>
	<path class="st0" d="M1167.96,843.12c0-1.78,0.5-3.34,1.51-4.68c1.01-1.34,2.41-2.38,4.21-3.11c1.8-0.73,3.86-1.1,6.19-1.1
		c1.17,0,2.35,0.09,3.55,0.26c1.2,0.18,2.24,0.46,3.12,0.85v-1.47c0-1.73-0.52-3.07-1.56-4c-1.04-0.94-2.58-1.4-4.63-1.4
		c-1.52,0-2.97,0.26-4.34,0.79c-1.37,0.53-2.82,1.3-4.34,2.33l-2.28-4.66c1.83-1.2,3.72-2.1,5.64-2.7c1.93-0.6,3.95-0.9,6.06-0.9
		c3.95,0,7.03,0.98,9.24,2.92c2.21,1.95,3.31,4.73,3.31,8.35v8.71c0,0.73,0.13,1.26,0.39,1.57c0.26,0.31,0.7,0.5,1.3,0.58v5.77
		c-0.63,0.1-1.21,0.19-1.72,0.26c-0.52,0.07-0.95,0.1-1.3,0.1c-1.42,0-2.48-0.32-3.21-0.95c-0.72-0.64-1.17-1.41-1.35-2.33
		l-0.16-1.43c-1.2,1.55-2.7,2.75-4.5,3.6c-1.8,0.85-3.64,1.27-5.5,1.27c-1.84,0-3.49-0.38-4.95-1.12c-1.46-0.75-2.61-1.78-3.44-3.09
		C1168.37,846.23,1167.96,844.76,1167.96,843.12z M1185.22,844.49c0.39-0.41,0.71-0.82,0.95-1.24c0.25-0.41,0.37-0.79,0.37-1.14
		v-2.74c-0.84-0.34-1.77-0.61-2.75-0.8c-0.99-0.19-1.93-0.29-2.81-0.29c-1.83,0-3.34,0.39-4.52,1.16c-1.19,0.77-1.78,1.8-1.78,3.07
		c0,0.69,0.2,1.34,0.58,1.96c0.39,0.62,0.95,1.12,1.69,1.5c0.74,0.38,1.62,0.57,2.65,0.57c1.06,0,2.1-0.2,3.13-0.59
		C1183.75,845.57,1184.59,845.08,1185.22,844.49z"/>
	<path class="st0" d="M1213.43,851.75c-2.26,0-4.28-0.38-6.09-1.13c-1.8-0.75-3.34-1.8-4.6-3.14c-1.27-1.34-2.25-2.87-2.94-4.58
		c-0.69-1.71-1.03-3.51-1.03-5.39c0-2.58,0.59-4.95,1.77-7.09c1.18-2.14,2.87-3.87,5.05-5.16c2.19-1.29,4.78-1.94,7.79-1.94
		c3,0,5.58,0.65,7.73,1.96c2.15,1.31,3.75,3.02,4.81,5.14l-6.93,2.12c-0.6-1.02-1.4-1.81-2.38-2.35c-0.99-0.55-2.09-0.82-3.29-0.82
		c-1.34,0-2.57,0.34-3.68,1.01c-1.11,0.67-1.98,1.63-2.62,2.86c-0.64,1.23-0.95,2.66-0.95,4.29c0,1.59,0.33,3,0.98,4.23
		c0.65,1.23,1.53,2.2,2.62,2.91c1.09,0.71,2.31,1.06,3.65,1.06c0.85,0,1.65-0.14,2.41-0.42c0.76-0.28,1.43-0.67,2.04-1.16
		c0.6-0.5,1.04-1.06,1.32-1.7l6.94,2.12c-0.64,1.38-1.56,2.61-2.78,3.71c-1.22,1.09-2.65,1.95-4.29,2.57
		C1217.33,851.44,1215.48,851.75,1213.43,851.75z"/>
	<path class="st0" d="M1230.64,851.22V823.8h7.09v18.04l12.44-18.09h6.46v27.47h-7.1V833.6l-12.28,17.62H1230.64z"/>
	<path class="st0" d="M1263.36,851.22v-27.47h15.45c1.91,0,3.45,0.31,4.63,0.94c1.18,0.63,2.06,1.45,2.62,2.46
		c0.56,1.01,0.84,2.09,0.84,3.24c0,1.53-0.34,2.88-1.03,4.03c-0.69,1.15-1.76,2.04-3.21,2.67c1.62,0.46,2.95,1.23,3.97,2.34
		c1.03,1.1,1.54,2.55,1.54,4.33c0,1.72-0.41,3.13-1.22,4.23c-0.81,1.1-1.98,1.92-3.5,2.44c-1.51,0.53-3.32,0.79-5.4,0.79H1263.36z
		 M1270.08,835.12h6.94c0.63,0,1.2-0.15,1.69-0.46c0.49-0.31,0.87-0.72,1.14-1.24s0.4-1.09,0.4-1.7c0-0.9-0.3-1.65-0.87-2.25
		c-0.58-0.6-1.35-0.9-2.3-0.9h-6.99V835.12z M1270.08,846.4h7.79c0.63,0,1.21-0.16,1.74-0.47c0.53-0.31,0.95-0.73,1.25-1.25
		c0.3-0.52,0.45-1.1,0.45-1.72c0-0.66-0.14-1.24-0.42-1.74c-0.28-0.5-0.68-0.9-1.19-1.2c-0.51-0.3-1.1-0.44-1.77-0.44h-7.83V846.4z"
		/>
	<path class="st0" d="M1293.58,851.22v-27.47h7.09v8.63h4.87c3.35,0,5.91,0.84,7.67,2.52s2.65,3.9,2.65,6.67
		c0,1.86-0.38,3.52-1.14,4.99c-0.76,1.47-1.86,2.62-3.31,3.44c-1.45,0.82-3.24,1.23-5.4,1.23H1293.58z M1300.67,845.82h4.23
		c0.99,0,1.78-0.19,2.39-0.57c0.6-0.38,1.05-0.88,1.35-1.51c0.3-0.62,0.45-1.33,0.45-2.13c0-0.76-0.14-1.45-0.42-2.05
		c-0.28-0.61-0.73-1.09-1.35-1.46c-0.62-0.36-1.44-0.54-2.46-0.54h-4.19V845.82z M1320.21,851.22V823.8h7.1v27.42H1320.21z"/>
	<path class="st0" d="M1338.63,823.75l5.83,8.6l0.42,0.94l0.53-0.94l5.77-8.6h7.47l-9.64,13.68l9.8,13.79h-7.47l-5.98-8.55
		l-0.48-0.89l-0.42,0.89l-5.93,8.55h-7.47l9.8-13.63l-9.64-13.84H1338.63z"/>
	<path class="st0" d="M1373.4,851.22v-6.3c0.84-0.03,1.61-0.24,2.28-0.62c0.67-0.38,1.26-1.02,1.77-1.93
		c0.51-0.91,0.92-2.18,1.22-3.83c0.3-1.64,0.5-3.75,0.61-6.32l0.37-8.48h20.8v27.1h-7.09v-20.91h-7.47l-0.1,3.14
		c-0.14,3.53-0.5,6.46-1.06,8.79c-0.57,2.33-1.35,4.17-2.36,5.52c-1.01,1.35-2.25,2.32-3.74,2.9
		C1377.16,850.88,1375.42,851.18,1373.4,851.22z"/>
	<path class="st0" d="M1432.11,851.75c-2.5,0-4.7-0.48-6.57-1.44c-1.87-0.96-3.4-2.29-4.58-3.99s-1.96-3.61-2.35-5.74h-4.35v10.64
		h-7.09v-27.47h7.09v10.64h4.35c0.39-2.14,1.17-4.06,2.35-5.74c1.18-1.68,2.73-2.98,4.63-3.92c1.91-0.94,4.07-1.4,6.51-1.4
		c3,0,5.54,0.65,7.63,1.94c2.08,1.29,3.67,3.01,4.79,5.16c1.11,2.15,1.67,4.53,1.67,7.15c0,2.62-0.57,5-1.69,7.15
		c-1.13,2.15-2.74,3.86-4.82,5.13S1435.08,851.75,1432.11,851.75z M1432.11,845.71c1.34,0,2.52-0.34,3.55-1.04
		c1.03-0.69,1.82-1.65,2.38-2.86c0.57-1.21,0.85-2.63,0.85-4.26c0-1.7-0.29-3.16-0.87-4.39c-0.58-1.23-1.38-2.17-2.41-2.83
		c-1.03-0.66-2.19-0.99-3.5-0.99c-1.27,0-2.41,0.34-3.42,1.01c-1,0.67-1.79,1.63-2.36,2.86c-0.56,1.23-0.84,2.68-0.84,4.34
		c0,1.66,0.28,3.11,0.84,4.34c0.57,1.23,1.35,2.17,2.36,2.83C1429.71,845.38,1430.84,845.71,1432.11,845.71z"/>
	<path class="st0" d="M1448.89,857.94v-12.92h0.74c0.71,0,1.37-0.19,1.99-0.58c0.62-0.38,1.16-1.04,1.64-1.96
		c0.48-0.92,0.87-2.2,1.17-3.84c0.3-1.64,0.5-3.73,0.61-6.27l0.31-8.63h20.81v21.28h3.86v12.92h-6.2v-6.72h-18.68v6.72H1448.89z
		 M1458.58,845.02h10.48v-15.3h-7.51l-0.16,3.38c-0.1,2.29-0.28,4.22-0.5,5.8c-0.23,1.58-0.53,2.86-0.9,3.85
		C1459.62,843.75,1459.15,844.5,1458.58,845.02z"/>
	<path class="st0" d="M1497.76,851.75c-2.22,0-4.23-0.38-6.04-1.13c-1.8-0.75-3.34-1.78-4.6-3.09s-2.25-2.81-2.94-4.5
		c-0.69-1.69-1.03-3.48-1.03-5.37c0-2.62,0.59-5.01,1.77-7.17c1.18-2.16,2.87-3.9,5.08-5.21c2.2-1.31,4.81-1.96,7.8-1.96
		c3.04,0,5.63,0.66,7.79,1.97s3.8,3.04,4.95,5.19c1.14,2.15,1.72,4.47,1.72,6.95c0,0.42-0.02,0.85-0.06,1.29
		c-0.04,0.44-0.07,0.79-0.1,1.07h-21.44c0.14,1.38,0.56,2.59,1.24,3.62c0.69,1.03,1.58,1.82,2.65,2.35c1.08,0.53,2.23,0.8,3.47,0.8
		c1.41,0,2.74-0.34,3.99-1.03c1.26-0.69,2.11-1.6,2.57-2.73l6.09,1.69c-0.67,1.41-1.64,2.66-2.89,3.76
		c-1.26,1.09-2.73,1.95-4.42,2.57C1501.67,851.44,1499.8,851.75,1497.76,851.75z M1490.5,835.28h14.51
		c-0.14-1.38-0.54-2.58-1.19-3.6c-0.65-1.02-1.51-1.81-2.57-2.38c-1.06-0.57-2.25-0.85-3.55-0.85c-1.27,0-2.42,0.28-3.46,0.85
		c-1.04,0.57-1.89,1.36-2.54,2.38C1491.04,832.71,1490.64,833.9,1490.5,835.28z"/>
	<path class="st0" d="M1516.86,851.22V823.8h7.09v18.04l12.44-18.09h6.46v27.47h-7.1V833.6l-12.28,17.62H1516.86z M1529.89,820.89
		c-2.72,0-4.86-0.7-6.41-2.09c-1.56-1.39-2.33-3.18-2.33-5.37h4.39c0,1.06,0.36,1.94,1.06,2.65c0.71,0.71,1.8,1.06,3.29,1.06
		c1.48,0,2.55-0.34,3.2-1.01c0.65-0.67,1.05-1.57,1.19-2.7h4.39c0,2.19-0.78,3.98-2.33,5.37
		C1534.79,820.19,1532.64,820.89,1529.89,820.89z"/>
</g>
</svg>
