<svg width="26" height="26" viewBox="0 0 26 26" fill="none" xmlns="http://www.w3.org/2000/svg">
<path d="M9.625 0.625H2.875C2.27826 0.625 1.70597 0.862053 1.28401 1.28401C0.862053 1.70597 0.625 2.27826 0.625 2.875V9.625C0.625 10.2217 0.862053 10.794 1.28401 11.216C1.70597 11.6379 2.27826 11.875 2.875 11.875H9.625C10.2217 11.875 10.794 11.6379 11.216 11.216C11.6379 10.794 11.875 10.2217 11.875 9.625V2.875C11.875 2.27826 11.6379 1.70597 11.216 1.28401C10.794 0.862053 10.2217 0.625 9.625 0.625ZM9.625 14.125H2.875C2.27826 14.125 1.70597 14.3621 1.28401 14.784C0.862053 15.206 0.625 15.7783 0.625 16.375V23.125C0.625 23.7217 0.862053 24.294 1.28401 24.716C1.70597 25.1379 2.27826 25.375 2.875 25.375H9.625C10.2217 25.375 10.794 25.1379 11.216 24.716C11.6379 24.294 11.875 23.7217 11.875 23.125V16.375C11.875 15.7783 11.6379 15.206 11.216 14.784C10.794 14.3621 10.2217 14.125 9.625 14.125ZM23.125 0.625H16.375C15.7783 0.625 15.206 0.862053 14.784 1.28401C14.3621 1.70597 14.125 2.27826 14.125 2.875V9.625C14.125 10.2217 14.3621 10.794 14.784 11.216C15.206 11.6379 15.7783 11.875 16.375 11.875H23.125C23.7217 11.875 24.294 11.6379 24.716 11.216C25.1379 10.794 25.375 10.2217 25.375 9.625V2.875C25.375 2.27826 25.1379 1.70597 24.716 1.28401C24.294 0.862053 23.7217 0.625 23.125 0.625ZM14.125 19.75V15.25C14.125 14.9516 14.2435 14.6655 14.4545 14.4545C14.6655 14.2435 14.9516 14.125 15.25 14.125C15.5484 14.125 15.8345 14.2435 16.0455 14.4545C16.2565 14.6655 16.375 14.9516 16.375 15.25V19.75C16.375 20.0484 16.2565 20.3345 16.0455 20.5455C15.8345 20.7565 15.5484 20.875 15.25 20.875C14.9516 20.875 14.6655 20.7565 14.4545 20.5455C14.2435 20.3345 14.125 20.0484 14.125 19.75ZM25.375 17.5C25.375 17.7984 25.2565 18.0845 25.0455 18.2955C24.8345 18.5065 24.5484 18.625 24.25 18.625H20.875V24.25C20.875 24.5484 20.7565 24.8345 20.5455 25.0455C20.3345 25.2565 20.0484 25.375 19.75 25.375H15.25C14.9516 25.375 14.6655 25.2565 14.4545 25.0455C14.2435 24.8345 14.125 24.5484 14.125 24.25C14.125 23.9516 14.2435 23.6655 14.4545 23.4545C14.6655 23.2435 14.9516 23.125 15.25 23.125H18.625V15.25C18.625 14.9516 18.7435 14.6655 18.9545 14.4545C19.1655 14.2435 19.4516 14.125 19.75 14.125C20.0484 14.125 20.3345 14.2435 20.5455 14.4545C20.7565 14.6655 20.875 14.9516 20.875 15.25V16.375H24.25C24.5484 16.375 24.8345 16.4935 25.0455 16.7045C25.2565 16.9155 25.375 17.2016 25.375 17.5ZM25.375 22V24.25C25.375 24.5484 25.2565 24.8345 25.0455 25.0455C24.8345 25.2565 24.5484 25.375 24.25 25.375C23.9516 25.375 23.6655 25.2565 23.4545 25.0455C23.2435 24.8345 23.125 24.5484 23.125 24.25V22C23.125 21.7016 23.2435 21.4155 23.4545 21.2045C23.6655 20.9935 23.9516 20.875 24.25 20.875C24.5484 20.875 24.8345 20.9935 25.0455 21.2045C25.2565 21.4155 25.375 21.7016 25.375 22Z" fill="#CCCCCC"/>
</svg>
