<svg width="27" height="24" viewBox="0 0 27 24" fill="none" xmlns="http://www.w3.org/2000/svg">
<path d="M24.84 4.36364H3.24C2.95357 4.36364 2.67886 4.2487 2.47632 4.04412C2.27379 3.83953 2.16 3.56205 2.16 3.27273C2.16 2.9834 2.27379 2.70592 2.47632 2.50134C2.67886 2.29675 2.95357 2.18182 3.24 2.18182H21.6C21.8864 2.18182 22.1611 2.06688 22.3637 1.8623C22.5662 1.65771 22.68 1.38024 22.68 1.09091C22.68 0.801582 22.5662 0.524105 22.3637 0.31952C22.1611 0.114935 21.8864 0 21.6 0H3.24C2.3807 0 1.55659 0.344804 0.948974 0.95856C0.341356 1.57232 0 2.40475 0 3.27273V20.7273C0 21.5953 0.341356 22.4277 0.948974 23.0414C1.55659 23.6552 2.3807 24 3.24 24H24.84C25.4129 24 25.9623 23.7701 26.3673 23.361C26.7724 22.9518 27 22.3968 27 21.8182V6.54545C27 5.9668 26.7724 5.41185 26.3673 5.00268C25.9623 4.59351 25.4129 4.36364 24.84 4.36364ZM18.36 13.6364C18.36 13.3127 18.455 12.9963 18.633 12.7272C18.811 12.4582 19.064 12.2484 19.3601 12.1246C19.6561 12.0007 19.9818 11.9683 20.296 12.0314C20.6103 12.0946 20.899 12.2504 21.1255 12.4793C21.3521 12.7081 21.5064 12.9997 21.5689 13.3171C21.6314 13.6346 21.5993 13.9636 21.4767 14.2626C21.3541 14.5616 21.1464 14.8171 20.88 14.997C20.6136 15.1768 20.3004 15.2727 19.98 15.2727C19.5504 15.2727 19.1383 15.1003 18.8345 14.7934C18.5307 14.4866 18.36 14.0704 18.36 13.6364Z" fill="#CCCCCC"/>
</svg>
